# xmcd
#
# Track frame offsets:
#	150
#	21577
#	40720
#	62475
#	78897
#	100927
#	118555
#	135985
#	155197
#	170205
#	189187
#	209152
#
# Disc length: 3038 seconds
#
# Revision: 2
# Processed by: cddbd v1.4PL0 Copyright (c) Steve Scherf et al.
# Submitted via: audiograbber 1.81.03
#
DISCID=a30bdc0c
DTITLE=Ester Brohus - Heart Of Desert Longing
DYEAR=1995
DGENRE=Country
TTITLE0=Blinded By You
TTITLE1=Little White Lies
TTITLE2=Don't Talk To Me
TTITLE3=Lean Your Love On Me
TTITLE4=Fade Into Daylight
TTITLE5=Wall Of Tears
TTITLE6=To FInd My Love
TTITLE7=Going Wild For Ypu, Baby
TTITLE8=Tell Me A Story Tonight
TTITLE9=Right as Rain
TTITLE10=No Regrets
TTITLE11=I'll Always Come Back
EXTD=
EXTT0=
EXTT1=
EXTT2=
EXTT3=
EXTT4=
EXTT5=
EXTT6=
EXTT7=
EXTT8=
EXTT9=
EXTT10=
EXTT11=
PLAYORDER=
